<svg xmlns="http://www.w3.org/2000/svg" width="591" height="1280" viewBox="0 0 591 1280">
    <defs>
      <linearGradient id="bg" x1="0" y1="0" x2="1" y2="1">
        <stop offset="0" stop-color="#07111f"/>
        <stop offset="0.56" stop-color="#102a3f"/>
        <stop offset="1" stop-color="#0f172a"/>
      </linearGradient>
      <radialGradient id="glow" cx="35%" cy="20%" r="70%">
        <stop offset="0" stop-color="#34d399" stop-opacity="0.42"/>
        <stop offset="1" stop-color="#34d399" stop-opacity="0"/>
      </radialGradient>
      <filter id="shadow" x="-30%" y="-30%" width="160%" height="160%">
        <feDropShadow dx="0" dy="24" stdDeviation="22" flood-color="#020617" flood-opacity="0.35"/>
      </filter>
    </defs>
    <rect width="591" height="1280" fill="url(#bg)"/>
    <rect width="591" height="1280" fill="url(#glow)"/>
    <rect x="413" y="42" width="116" height="116" rx="34" fill="#ffffff" opacity="0.10"/>
    <text x="40" y="92" font-size="42" font-weight="900" fill="#ffffff">Лекарства</text>
    <text x="40" y="138" font-size="24" font-weight="800" fill="#dbeafe">Напоминания по назначению врача</text>
    <g opacity="0.96"><rect x="40" y="222" width="178" height="32" rx="16" fill="rgba(255,255,255,0.14)"/><text x="56" y="243" font-size="12" font-weight="800" fill="#ffffff">Принято</text><rect x="40" y="264" width="178" height="32" rx="16" fill="#dbeafe"/><text x="56" y="285" font-size="12" font-weight="800" fill="#2563eb">Ожидает</text><rect x="40" y="306" width="178" height="32" rx="16" fill="rgba(255,255,255,0.14)"/><text x="56" y="327" font-size="12" font-weight="800" fill="#ffffff">Push</text></g>
    <g filter="url(#shadow)">
    <g transform="translate(148 360) scale(1)">
    <rect x="-10" y="18" width="284" height="560" rx="46" fill="#020617" opacity="0.26"/>
    <rect width="264" height="548" rx="44" fill="#08111f"/>
    <rect x="13" y="15" width="238" height="518" rx="34" fill="#f8fafc"/>
    <rect x="91" y="29" width="82" height="8" rx="4" fill="#111827" opacity="0.18"/>
    <circle cx="44" cy="72" r="18" fill="#dcfce7"/>
    <text x="39" y="79" font-size="18" font-weight="900" fill="#22c55e">+</text>
    <text x="72" y="68" font-size="18" font-weight="900" fill="#0f172a">Лекарства</text>
    <text x="72" y="88" font-size="11" font-weight="700" fill="#64748b">Профиль</text>
    <rect x="26" y="116" width="212" height="118" rx="24" fill="#0f766e"/>
    <circle cx="204" cy="150" r="42" fill="#ffffff" opacity="0.12"/>
    <text x="46" y="158" font-size="16" font-weight="800" fill="#ccfbf1">по назначению врача</text>
    <text x="46" y="195" font-size="32" font-weight="900" fill="#ffffff">Сегодня</text>
    <rect x="46" y="212" width="120" height="32" rx="16" fill="rgba(255,255,255,0.18)"/><text x="62" y="233" font-size="12" font-weight="800" fill="#ffffff">без диагноза</text>
    <rect x="30" y="260" width="204" height="68" rx="18" fill="#fff" stroke="#e2e8f0"/>
  <text x="46" y="285" font-size="13" font-weight="800" fill="#0f172a">08:00</text>
  <text x="46" y="309" font-size="20" font-weight="900" fill="#0f172a">принято</text>
  <rect x="156" y="280" width="62" height="28" rx="14" fill="#dcfce7"/>
  <text x="169" y="299" font-size="10" font-weight="900" fill="#22c55e">ок</text><rect x="30" y="342" width="204" height="68" rx="18" fill="#fff" stroke="#e2e8f0"/>
  <text x="46" y="367" font-size="13" font-weight="800" fill="#0f172a">14:00</text>
  <text x="46" y="391" font-size="20" font-weight="900" fill="#0f172a">ожидает</text>
  <rect x="156" y="362" width="62" height="28" rx="14" fill="#e0f2fe"/>
  <text x="169" y="381" font-size="10" font-weight="900" fill="#2563eb">push</text><rect x="30" y="424" width="204" height="68" rx="18" fill="#fff" stroke="#e2e8f0"/>
  <text x="46" y="449" font-size="13" font-weight="800" fill="#0f172a">21:00</text>
  <text x="46" y="473" font-size="20" font-weight="900" fill="#0f172a">напомнить</text>
  <rect x="156" y="444" width="62" height="28" rx="14" fill="#fef3c7"/>
  <text x="169" y="463" font-size="10" font-weight="900" fill="#f59e0b">план</text>
    <rect x="30" y="503" width="204" height="24" rx="12" fill="#22c55e"/>
  </g>
    </g>
    <rect x="40" y="1162" width="511" height="76" rx="24" fill="rgba(255,255,255,0.12)" stroke="rgba(255,255,255,0.22)"/>
    <text x="64" y="1196" font-size="16" font-weight="900" fill="#ffffff">Информационно, не диагноз</text>
    <text x="64" y="1222" font-size="14" font-weight="700" fill="#cbd5e1">Решения по лечению принимает врач.</text>
  </svg>