<svg xmlns="http://www.w3.org/2000/svg" width="800" height="800" viewBox="0 0 800 800">
    <defs>
      <linearGradient id="bg" x1="0" y1="0" x2="1" y2="1">
        <stop offset="0" stop-color="#06141f"/>
        <stop offset="0.48" stop-color="#0b2a32"/>
        <stop offset="1" stop-color="#10251f"/>
      </linearGradient>
      <radialGradient id="wash" cx="30%" cy="10%" r="80%">
        <stop offset="0" stop-color="#20c997" stop-opacity="0.42"/>
        <stop offset="1" stop-color="#20c997" stop-opacity="0"/>
      </radialGradient>
      <filter id="softShadow" x="-20%" y="-20%" width="140%" height="140%">
        <feDropShadow dx="0" dy="22" stdDeviation="28" flood-color="#020617" flood-opacity="0.34"/>
      </filter>
    </defs>
    <rect width="800" height="800" fill="url(#bg)"/>
    <rect width="800" height="800" fill="url(#wash)"/>
    <circle cx="728" cy="86" r="56" fill="#ffffff" opacity="0.08"/>
    <text x="54" y="82" font-size="17" font-weight="900" fill="#b2f2bb">Мои Анализы</text>
    <text x="54" y="138" font-size="42" font-weight="900" fill="#ffffff">Мои Анализы</text>
    <text x="54" y="190" font-size="19" font-weight="800" fill="#d8f3dc">анализы, риски, лекарства и AI чат в одном приложении</text>
    <rect x="54" y="205" width="188" height="34" rx="17" fill="rgba(255,255,255,0.14)"/>
  <text x="70" y="228" font-size="13" font-weight="800" fill="#ffffff">современный интерфейс</text>
    <rect x="260" y="205" width="164" height="34" rx="17" fill="#d8f3dc"/>
  <text x="276" y="228" font-size="13" font-weight="800" fill="#087f5b">без лишних рамок</text>
    <g filter="url(#softShadow)">
      <g>
    <rect x="105" y="260" width="590" height="380" rx="30" fill="#f6f8fb" stroke="rgba(255,255,255,0.72)" stroke-width="2"/>
    <rect x="127" y="282" width="546" height="118" rx="28" fill="#07111f"/>
    <circle cx="623" cy="328" r="30" fill="#20c997" opacity="0.2"/>
    <text x="151" y="320" font-size="16" font-weight="900" fill="#b2f2bb">Главная</text>
    <text x="151" y="356" font-size="27" font-weight="900" fill="#ffffff">Здоровье на экране</text>
    <text x="151" y="380" font-size="13" font-weight="800" fill="#cbd5e1">последнее обновление сегодня</text>
    <rect x="131" y="414" width="538" height="72" rx="24" fill="#ffffff" stroke="#dbe3ee"/>
  <text x="157" y="441" font-size="12" font-weight="900" fill="#64748b">Ключевой статус</text>
    <text x="157" y="472" font-size="29" font-weight="900" fill="#0f172a">4 раздела</text>
    <path d="M 591 454 C 617 448, 647 468, 665 432" fill="none" stroke="#20c997" stroke-width="6" stroke-linecap="round"/>
    <rect x="129" y="496" width="542" height="66" rx="20" fill="#ffffff" stroke="#dbe3ee"/>
  <circle cx="161" cy="529" r="15" fill="#d0ebff"/>
  <text x="187" y="523" font-size="14" font-weight="900" fill="#0f172a">Расшифровка</text>
  <text x="187" y="544" font-size="11" font-weight="700" fill="#64748b">ОАК готов к просмотру</text>
  <rect x="589" y="514" width="62" height="28" rx="14" fill="#d0ebff"/>
  <text x="607" y="533" font-size="10" font-weight="900" fill="#228be6">AI</text><rect x="129" y="554" width="542" height="66" rx="20" fill="#ffffff" stroke="#dbe3ee"/>
  <circle cx="161" cy="587" r="15" fill="#ffe3e3"/>
  <text x="187" y="581" font-size="14" font-weight="900" fill="#0f172a">Риски</text>
  <text x="187" y="602" font-size="11" font-weight="700" fill="#64748b">2 важных пункта</text>
  <rect x="589" y="572" width="62" height="28" rx="14" fill="#ffe3e3"/>
  <text x="607" y="591" font-size="10" font-weight="900" fill="#fa5252">план</text><rect x="129" y="612" width="542" height="66" rx="20" fill="#ffffff" stroke="#dbe3ee"/>
  <circle cx="161" cy="645" r="15" fill="#d3f9d8"/>
  <text x="187" y="639" font-size="14" font-weight="900" fill="#0f172a">Лекарства</text>
  <text x="187" y="660" font-size="11" font-weight="700" fill="#64748b">следующий прием 14:00</text>
  <rect x="589" y="630" width="62" height="28" rx="14" fill="#d3f9d8"/>
  <text x="607" y="649" font-size="10" font-weight="900" fill="#12b886">push</text>
    <rect x="169" y="606" width="462" height="7" rx="4" fill="#cbd5e1"/>
  </g>
    </g>
    <rect x="54" y="746" width="692" height="38" rx="19" fill="rgba(255,255,255,0.13)" stroke="rgba(255,255,255,0.22)"/>
    <text x="78" y="770" font-size="12" font-weight="900" fill="#ffffff">Информационно, не диагноз. Лечение назначает врач.</text>
  </svg>