<svg xmlns="http://www.w3.org/2000/svg" width="800" height="800" viewBox="0 0 800 800">
    <defs>
      <linearGradient id="bg" x1="0" y1="0" x2="1" y2="1">
        <stop offset="0" stop-color="#07111f"/>
        <stop offset="0.56" stop-color="#102a3f"/>
        <stop offset="1" stop-color="#0f172a"/>
      </linearGradient>
      <radialGradient id="glow" cx="35%" cy="20%" r="70%">
        <stop offset="0" stop-color="#34d399" stop-opacity="0.42"/>
        <stop offset="1" stop-color="#34d399" stop-opacity="0"/>
      </radialGradient>
      <filter id="shadow" x="-30%" y="-30%" width="160%" height="160%">
        <feDropShadow dx="0" dy="24" stdDeviation="22" flood-color="#020617" flood-opacity="0.35"/>
      </filter>
    </defs>
    <rect width="800" height="800" fill="url(#bg)"/>
    <rect width="800" height="800" fill="url(#glow)"/>
    <rect x="622" y="28" width="116" height="116" rx="34" fill="#ffffff" opacity="0.10"/>
    <text x="40" y="58" font-size="38" font-weight="900" fill="#ffffff">Мои Анализы</text>
    <text x="40" y="100" font-size="21" font-weight="800" fill="#dbeafe">Понятная расшифровка анализов и контроль здоровья</text>
    <g opacity="0.96"><rect x="40" y="156" width="154" height="32" rx="16" fill="rgba(255,255,255,0.14)"/><text x="56" y="177" font-size="12" font-weight="800" fill="#ffffff">AI-расшифровка</text><rect x="218" y="156" width="154" height="32" rx="16" fill="#dbeafe"/><text x="234" y="177" font-size="12" font-weight="800" fill="#2563eb">Риски</text><rect x="396" y="156" width="154" height="32" rx="16" fill="rgba(255,255,255,0.14)"/><text x="412" y="177" font-size="12" font-weight="800" fill="#ffffff">Напоминания</text></g>
    <g filter="url(#shadow)">
    <g transform="translate(32 250) scale(0.86)">
    <rect x="-10" y="18" width="284" height="560" rx="46" fill="#020617" opacity="0.26"/>
    <rect width="264" height="548" rx="44" fill="#08111f"/>
    <rect x="13" y="15" width="238" height="518" rx="34" fill="#f8fafc"/>
    <rect x="91" y="29" width="82" height="8" rx="4" fill="#111827" opacity="0.18"/>
    <circle cx="44" cy="72" r="18" fill="#dcfce7"/>
    <text x="39" y="79" font-size="18" font-weight="900" fill="#22c55e">+</text>
    <text x="72" y="68" font-size="18" font-weight="900" fill="#0f172a">ОАК</text>
    <text x="72" y="88" font-size="11" font-weight="700" fill="#64748b">Профиль</text>
    <rect x="26" y="116" width="212" height="118" rx="24" fill="#0f766e"/>
    <circle cx="204" cy="150" r="42" fill="#ffffff" opacity="0.12"/>
    <text x="46" y="158" font-size="16" font-weight="800" fill="#ccfbf1">информационная расшифровка</text>
    <text x="46" y="195" font-size="32" font-weight="900" fill="#ffffff">Готово</text>
    <rect x="46" y="212" width="120" height="32" rx="16" fill="rgba(255,255,255,0.18)"/><text x="62" y="233" font-size="12" font-weight="800" fill="#ffffff">без диагноза</text>
    <rect x="30" y="260" width="204" height="68" rx="18" fill="#fff" stroke="#e2e8f0"/>
  <text x="46" y="285" font-size="13" font-weight="800" fill="#0f172a">Гемоглобин</text>
  <text x="46" y="309" font-size="20" font-weight="900" fill="#0f172a">165</text>
  <rect x="156" y="280" width="62" height="28" rx="14" fill="#fef3c7"/>
  <text x="169" y="299" font-size="10" font-weight="900" fill="#f59e0b">выше</text><rect x="30" y="342" width="204" height="68" rx="18" fill="#fff" stroke="#e2e8f0"/>
  <text x="46" y="367" font-size="13" font-weight="800" fill="#0f172a">Лейкоциты</text>
  <text x="46" y="391" font-size="20" font-weight="900" fill="#0f172a">15.2</text>
  <rect x="156" y="362" width="62" height="28" rx="14" fill="#fee2e2"/>
  <text x="169" y="381" font-size="10" font-weight="900" fill="#ef4444">важно</text><rect x="30" y="424" width="204" height="68" rx="18" fill="#fff" stroke="#e2e8f0"/>
  <text x="46" y="449" font-size="13" font-weight="800" fill="#0f172a">Тромбоциты</text>
  <text x="46" y="473" font-size="20" font-weight="900" fill="#0f172a">246</text>
  <rect x="156" y="444" width="62" height="28" rx="14" fill="#dcfce7"/>
  <text x="169" y="463" font-size="10" font-weight="900" fill="#22c55e">норма</text>
    <rect x="30" y="503" width="204" height="24" rx="12" fill="#22c55e"/>
  </g> <g transform="translate(290 286) scale(0.86)">
    <rect x="-10" y="18" width="284" height="560" rx="46" fill="#020617" opacity="0.26"/>
    <rect width="264" height="548" rx="44" fill="#08111f"/>
    <rect x="13" y="15" width="238" height="518" rx="34" fill="#f8fafc"/>
    <rect x="91" y="29" width="82" height="8" rx="4" fill="#111827" opacity="0.18"/>
    <circle cx="44" cy="72" r="18" fill="#dcfce7"/>
    <text x="39" y="79" font-size="18" font-weight="900" fill="#22c55e">+</text>
    <text x="72" y="68" font-size="18" font-weight="900" fill="#0f172a">Риски</text>
    <text x="72" y="88" font-size="11" font-weight="700" fill="#64748b">Профиль</text>
    <rect x="26" y="116" width="212" height="118" rx="24" fill="#0f766e"/>
    <circle cx="204" cy="150" r="42" fill="#ffffff" opacity="0.12"/>
    <text x="46" y="158" font-size="16" font-weight="800" fill="#ccfbf1">3 пункта обсудить</text>
    <text x="46" y="195" font-size="32" font-weight="900" fill="#ffffff">Средний</text>
    <rect x="46" y="212" width="120" height="32" rx="16" fill="rgba(255,255,255,0.18)"/><text x="62" y="233" font-size="12" font-weight="800" fill="#ffffff">без диагноза</text>
    <rect x="30" y="260" width="204" height="68" rx="18" fill="#fff" stroke="#e2e8f0"/>
  <text x="46" y="285" font-size="13" font-weight="800" fill="#0f172a">Отклонения</text>
  <text x="46" y="309" font-size="20" font-weight="900" fill="#0f172a">WBC</text>
  <rect x="156" y="280" width="62" height="28" rx="14" fill="#fee2e2"/>
  <text x="169" y="299" font-size="10" font-weight="900" fill="#ef4444">важно</text><rect x="30" y="342" width="204" height="68" rx="18" fill="#fff" stroke="#e2e8f0"/>
  <text x="46" y="367" font-size="13" font-weight="800" fill="#0f172a">Чекап</text>
  <text x="46" y="391" font-size="20" font-weight="900" fill="#0f172a">30 дней</text>
  <rect x="156" y="362" width="62" height="28" rx="14" fill="#e0f2fe"/>
  <text x="169" y="381" font-size="10" font-weight="900" fill="#2563eb">план</text><rect x="30" y="424" width="204" height="68" rx="18" fill="#fff" stroke="#e2e8f0"/>
  <text x="46" y="449" font-size="13" font-weight="800" fill="#0f172a">Врач</text>
  <text x="46" y="473" font-size="20" font-weight="900" fill="#0f172a">вопросы</text>
  <rect x="156" y="444" width="62" height="28" rx="14" fill="#fef3c7"/>
  <text x="169" y="463" font-size="10" font-weight="900" fill="#f59e0b">готово</text>
    <rect x="30" y="503" width="204" height="24" rx="12" fill="#22c55e"/>
  </g> <g transform="translate(484 250) scale(0.86)">
    <rect x="-10" y="18" width="284" height="560" rx="46" fill="#020617" opacity="0.26"/>
    <rect width="264" height="548" rx="44" fill="#08111f"/>
    <rect x="13" y="15" width="238" height="518" rx="34" fill="#f8fafc"/>
    <rect x="91" y="29" width="82" height="8" rx="4" fill="#111827" opacity="0.18"/>
    <circle cx="44" cy="72" r="18" fill="#dcfce7"/>
    <text x="39" y="79" font-size="18" font-weight="900" fill="#22c55e">+</text>
    <text x="72" y="68" font-size="18" font-weight="900" fill="#0f172a">AI чат</text>
    <text x="72" y="88" font-size="11" font-weight="700" fill="#64748b">Профиль</text>
    <rect x="26" y="116" width="212" height="118" rx="24" fill="#0f766e"/>
    <circle cx="204" cy="150" r="42" fill="#ffffff" opacity="0.12"/>
    <text x="46" y="158" font-size="16" font-weight="800" fill="#ccfbf1">и агентские действия</text>
    <text x="46" y="195" font-size="32" font-weight="900" fill="#ffffff">Ассистент</text>
    <rect x="46" y="212" width="120" height="32" rx="16" fill="rgba(255,255,255,0.18)"/><text x="62" y="233" font-size="12" font-weight="800" fill="#ffffff">без диагноза</text>
    <rect x="30" y="260" width="204" height="68" rx="18" fill="#fff" stroke="#e2e8f0"/>
  <text x="46" y="285" font-size="13" font-weight="800" fill="#0f172a">Ответ</text>
  <text x="46" y="309" font-size="20" font-weight="900" fill="#0f172a">справка</text>
  <rect x="156" y="280" width="62" height="28" rx="14" fill="#e0f2fe"/>
  <text x="169" y="299" font-size="10" font-weight="900" fill="#2563eb">AI</text><rect x="30" y="342" width="204" height="68" rx="18" fill="#fff" stroke="#e2e8f0"/>
  <text x="46" y="367" font-size="13" font-weight="800" fill="#0f172a">Агент</text>
  <text x="46" y="391" font-size="20" font-weight="900" fill="#0f172a">вопросы</text>
  <rect x="156" y="362" width="62" height="28" rx="14" fill="#dcfce7"/>
  <text x="169" y="381" font-size="10" font-weight="900" fill="#22c55e">готово</text><rect x="30" y="424" width="204" height="68" rx="18" fill="#fff" stroke="#e2e8f0"/>
  <text x="46" y="449" font-size="13" font-weight="800" fill="#0f172a">Действие</text>
  <text x="46" y="473" font-size="20" font-weight="900" fill="#0f172a">напомин.</text>
  <rect x="156" y="444" width="62" height="28" rx="14" fill="#fef3c7"/>
  <text x="169" y="463" font-size="10" font-weight="900" fill="#f59e0b">план</text>
    <rect x="30" y="503" width="204" height="24" rx="12" fill="#22c55e"/>
  </g>
    </g>
    <rect x="40" y="682" width="720" height="76" rx="24" fill="rgba(255,255,255,0.12)" stroke="rgba(255,255,255,0.22)"/>
    <text x="64" y="716" font-size="16" font-weight="900" fill="#ffffff">Информационно, не диагноз</text>
    <text x="64" y="742" font-size="14" font-weight="700" fill="#cbd5e1">Решения по лечению принимает врач.</text>
  </svg>