<svg xmlns="http://www.w3.org/2000/svg" width="591" height="1280" viewBox="0 0 591 1280">
    <defs>
      <linearGradient id="bg" x1="0" y1="0" x2="1" y2="1">
        <stop offset="0" stop-color="#06141f"/>
        <stop offset="0.48" stop-color="#0b2a32"/>
        <stop offset="1" stop-color="#10251f"/>
      </linearGradient>
      <radialGradient id="wash" cx="30%" cy="10%" r="80%">
        <stop offset="0" stop-color="#ff6b6b" stop-opacity="0.42"/>
        <stop offset="1" stop-color="#ff6b6b" stop-opacity="0"/>
      </radialGradient>
      <filter id="softShadow" x="-20%" y="-20%" width="140%" height="140%">
        <feDropShadow dx="0" dy="22" stdDeviation="28" flood-color="#020617" flood-opacity="0.34"/>
      </filter>
    </defs>
    <rect width="591" height="1280" fill="url(#bg)"/>
    <rect width="591" height="1280" fill="url(#wash)"/>
    <circle cx="519" cy="118" r="70" fill="#ffffff" opacity="0.08"/>
    <text x="44" y="114" font-size="17" font-weight="900" fill="#b2f2bb">Мои Анализы</text>
    <text x="44" y="184" font-size="48" font-weight="900" fill="#ffffff">Оценка риска</text>
    <text x="44" y="258" font-size="23" font-weight="800" fill="#d8f3dc">понятные приоритеты и план чекапов</text>
    <rect x="44" y="290" width="194" height="34" rx="17" fill="rgba(255,255,255,0.14)"/>
  <text x="60" y="313" font-size="13" font-weight="800" fill="#ffffff">современный интерфейс</text>
    <rect x="254" y="290" width="162" height="34" rx="17" fill="#d8f3dc"/>
  <text x="270" y="313" font-size="13" font-weight="800" fill="#087f5b">без лишних рамок</text>
    <g filter="url(#softShadow)">
      <g>
    <rect x="60" y="410" width="470" height="610" rx="36" fill="#f6f8fb" stroke="rgba(255,255,255,0.72)" stroke-width="2"/>
    <rect x="82" y="432" width="426" height="154" rx="28" fill="#07111f"/>
    <circle cx="458" cy="478" r="36" fill="#ff6b6b" opacity="0.2"/>
    <text x="106" y="470" font-size="18" font-weight="900" fill="#b2f2bb">Чекапы</text>
    <text x="106" y="515" font-size="34" font-weight="900" fill="#ffffff">Нужен контроль</text>
    <text x="106" y="546" font-size="15" font-weight="800" fill="#cbd5e1">обсудите с врачом</text>
    <rect x="86" y="610" width="418" height="118" rx="30" fill="#ffffff" stroke="#dbe3ee"/>
  <text x="112" y="652" font-size="15" font-weight="900" fill="#64748b">Ключевой статус</text>
    <text x="112" y="702" font-size="44" font-weight="900" fill="#0f172a">3 задачи</text>
    <path d="M 426 696 C 452 644, 482 664, 500 628" fill="none" stroke="#ff6b6b" stroke-width="8" stroke-linecap="round"/>
    <rect x="84" y="730" width="422" height="78" rx="20" fill="#ffffff" stroke="#dbe3ee"/>
  <circle cx="116" cy="769" r="18" fill="#ffe3e3"/>
  <text x="142" y="762" font-size="16" font-weight="900" fill="#0f172a">Лейкоциты</text>
  <text x="142" y="785" font-size="13" font-weight="700" fill="#64748b">показатель выше нормы</text>
  <rect x="416" y="754" width="70" height="28" rx="14" fill="#ffe3e3"/>
  <text x="434" y="773" font-size="10" font-weight="900" fill="#fa5252">важно</text><rect x="84" y="824" width="422" height="78" rx="20" fill="#ffffff" stroke="#dbe3ee"/>
  <circle cx="116" cy="863" r="18" fill="#d0ebff"/>
  <text x="142" y="856" font-size="16" font-weight="900" fill="#0f172a">Повторить ОАК</text>
  <text x="142" y="879" font-size="13" font-weight="700" fill="#64748b">через 7 дней</text>
  <rect x="416" y="848" width="70" height="28" rx="14" fill="#d0ebff"/>
  <text x="434" y="867" font-size="10" font-weight="900" fill="#228be6">чекап</text><rect x="84" y="918" width="422" height="78" rx="20" fill="#ffffff" stroke="#dbe3ee"/>
  <circle cx="116" cy="957" r="18" fill="#fff3bf"/>
  <text x="142" y="950" font-size="16" font-weight="900" fill="#0f172a">Вопросы врачу</text>
  <text x="142" y="973" font-size="13" font-weight="700" fill="#64748b">сформированы автоматически</text>
  <rect x="416" y="942" width="70" height="28" rx="14" fill="#fff3bf"/>
  <text x="434" y="961" font-size="10" font-weight="900" fill="#f08c00">готово</text>
    <rect x="124" y="986" width="342" height="7" rx="4" fill="#cbd5e1"/>
  </g>
    </g>
    <rect x="44" y="1200" width="503" height="48" rx="19" fill="rgba(255,255,255,0.13)" stroke="rgba(255,255,255,0.22)"/>
    <text x="68" y="1230" font-size="14" font-weight="900" fill="#ffffff">Информационно, не диагноз. Лечение назначает врач.</text>
  </svg>